HIERARCHY
ROOT Hips
{
	OFFSET -0.001795 -0.223333 0.028219
	CHANNELS 6 Xposition Yposition Zposition Zrotation Yrotation Xrotation 
	JOINT LeftUpLeg
	{
		OFFSET 0.069520 -0.091406 -0.006815
		CHANNELS 3 Zrotation Yrotation Xrotation
		JOINT LeftLeg
		{
			OFFSET 0.034277 -0.375199 -0.004496
			CHANNELS 3 Zrotation Yrotation Xrotation
			JOINT LeftFoot
			{
				OFFSET -0.013596 -0.397961 -0.043693
				CHANNELS 3 Zrotation Yrotation Xrotation
				JOINT LeftToe
				{
					OFFSET 0.026358 -0.055791 0.119288
					CHANNELS 3 Zrotation Yrotation Xrotation
					End Site
					{
						OFFSET 0.000000 0.000000 0.000000
					}
				}
			}
		}
	}
	JOINT RightUpLeg
	{
		OFFSET -0.067670 -0.090522 -0.004320
		CHANNELS 3 Zrotation Yrotation Xrotation
		JOINT RightLeg
		{
			OFFSET -0.038290 -0.382569 -0.008850
			CHANNELS 3 Zrotation Yrotation Xrotation
			JOINT RightFoot
			{
				OFFSET 0.015774 -0.398415 -0.042312
				CHANNELS 3 Zrotation Yrotation Xrotation
				JOINT RightToe
				{
					OFFSET -0.025372 -0.048144 0.123348
					CHANNELS 3 Zrotation Yrotation Xrotation
					End Site
					{
						OFFSET 0.000000 0.000000 0.000000
					}
				}
			}
		}
	}
	JOINT Spine
	{
		OFFSET -0.002533 0.108963 -0.026696
		CHANNELS 3 Zrotation Yrotation Xrotation
		JOINT Spine1
		{
			OFFSET 0.005487 0.135180 0.001092
			CHANNELS 3 Zrotation Yrotation Xrotation
			JOINT Spine2
			{
				OFFSET 0.001457 0.052922 0.025425
				CHANNELS 3 Zrotation Yrotation Xrotation
				JOINT Neck
				{
					OFFSET -0.002778 0.213870 -0.042857
					CHANNELS 3 Zrotation Yrotation Xrotation
					JOINT Head
					{
						OFFSET 0.005152 0.064970 0.051349
						CHANNELS 3 Zrotation Yrotation Xrotation
						End Site
						{
							OFFSET 0.000000 0.000000 0.000000
						}
					}
				}
				JOINT LeftShoulder
				{
					OFFSET 0.078845 0.121749 -0.034090
					CHANNELS 3 Zrotation Yrotation Xrotation
					JOINT LeftArm
					{
						OFFSET 0.090977 0.030469 -0.008868
						CHANNELS 3 Zrotation Yrotation Xrotation
						JOINT LeftForeArm
						{
							OFFSET 0.259612 -0.012772 -0.027456
							CHANNELS 3 Zrotation Yrotation Xrotation
							JOINT LeftHand
							{
								OFFSET 0.249234 0.008986 -0.001171
								CHANNELS 3 Zrotation Yrotation Xrotation
								End Site
								{
									OFFSET 0.000000 0.000000 0.000000
								}
							}
						}
					}
				}
				JOINT RightShoulder
				{
					OFFSET -0.081759 0.118833 -0.038615
					CHANNELS 3 Zrotation Yrotation Xrotation
					JOINT RightArm
					{
						OFFSET -0.096012 0.032551 -0.009143
						CHANNELS 3 Zrotation Yrotation Xrotation
						JOINT RightForeArm
						{
							OFFSET -0.253742 -0.013329 -0.021401
							CHANNELS 3 Zrotation Yrotation Xrotation
							JOINT RightHand
							{
								OFFSET -0.255298 0.007772 -0.005559
								CHANNELS 3 Zrotation Yrotation Xrotation
								End Site
								{
									OFFSET 0.000000 0.000000 0.000000
								}
							}
						}
					}
				}
			}
		}
	}
}
MOTION
Frames: 10
Frame Time: 0.050000
0.000000 0.941404 0.000000 -0.504621 -3.194575 6.242954 7.527681 -0.251669 -3.805171 -0.547982 0.181453 -4.073125 2.334586 7.583704 9.937598 0.000000 0.000000 0.000000 -5.199747 0.507433 -4.942780 -1.247390 -0.029624 -3.000657 -0.443784 -5.684754 10.385213 0.000000 0.000000 0.000000 5.773420 0.361354 -5.592729 -2.851326 1.302689 -3.703938 -3.430751 5.317943 5.523812 7.323794 -3.456868 -12.709821 0.000000 0.000000 0.000000 -18.267416 -3.424085 -0.957976 -54.055099 -6.325965 -3.497332 -8.429922 -15.914359 1.655007 0.000000 0.000000 0.000000 16.483507 -3.386204 -2.387084 61.073674 6.560017 -2.520959 9.459043 19.206242 2.213033 0.000000 0.000000 0.000000 
0.000236 0.940562 0.000059 -0.633229 -3.867467 6.901193 7.454306 -0.241572 -3.346075 -0.057901 0.178745 -5.058634 2.539108 7.853105 9.886366 0.000000 0.000000 0.000000 -5.029829 0.578093 -5.932303 -1.700862 0.033361 -2.378718 0.218911 -4.666675 10.904231 0.000000 0.000000 0.000000 6.632636 0.441984 -6.254162 -3.304418 1.489490 -3.788279 -4.272225 6.023935 5.074446 8.293135 -4.013111 -12.852474 0.000000 0.000000 0.000000 -19.339720 -3.205853 -1.349999 -52.795878 -6.566713 -3.199952 -8.777781 -15.748048 1.669154 0.000000 0.000000 0.000000 16.436827 -4.445872 -2.855738 61.871336 6.005042 -2.742475 10.258636 18.963853 2.316675 0.000000 0.000000 0.000000 
0.000366 0.940467 -0.000091 -0.302635 -3.491347 6.670709 6.959509 -0.260794 -3.750284 0.179790 0.104690 -3.524284 2.225100 7.078130 8.686658 0.000000 0.000000 0.000000 -5.235612 0.569661 -5.916746 -2.117559 0.060050 -2.492940 -0.376267 -5.927665 11.327051 0.000000 0.000000 0.000000 6.261237 0.410951 -6.030624 -2.891283 1.302301 -4.770304 -4.675606 5.610811 5.429936 8.042896 -4.097470 -11.677458 0.000000 0.000000 0.000000 -18.934595 -3.645399 -1.008642 -53.168321 -6.119612 -3.487632 -8.098576 -14.975356 1.508234 0.000000 0.000000 0.000000 17.291225 -3.356915 -2.369366 60.881862 5.433100 -3.114631 10.318558 19.516655 2.397994 0.000000 0.000000 0.000000 
0.000413 0.940233 -0.000213 -0.227673 -3.288175 7.168827 7.211840 -0.278796 -4.082944 -0.259765 0.156674 -4.002362 2.061191 6.918011 9.160996 0.000000 0.000000 0.000000 -5.293841 0.619474 -6.733726 -2.213860 0.072894 -2.404241 -0.499549 -6.334007 11.909413 0.000000 0.000000 0.000000 6.275000 0.429963 -6.336900 -3.118774 1.405050 -4.371050 -4.389178 4.808557 4.385847 8.081843 -4.331481 -10.699179 0.000000 0.000000 0.000000 -19.425313 -3.053072 -1.237657 -53.219290 -6.534012 -3.216760 -7.697628 -14.379990 1.408116 0.000000 0.000000 0.000000 16.473142 -3.331796 -2.467168 61.062979 4.977915 -3.215227 11.306728 20.019188 2.594545 0.000000 0.000000 0.000000 
0.000375 0.940615 -0.000445 0.006468 -2.859010 7.049442 6.770735 -0.299468 -4.383670 0.138497 0.106785 -3.480261 1.771420 6.366703 8.810152 0.000000 0.000000 0.000000 -5.456769 0.601901 -6.559217 -2.499884 0.087728 -2.553556 -0.682352 -6.664883 12.042746 0.000000 0.000000 0.000000 5.961221 0.419302 -6.323204 -2.769470 1.260885 -4.376602 -4.661890 4.663121 4.391953 7.809928 -4.117762 -10.786985 0.000000 0.000000 0.000000 -19.275898 -3.442556 -1.055118 -53.302502 -6.980400 -3.020224 -8.203892 -14.047211 1.432163 0.000000 0.000000 0.000000 16.578946 -3.613338 -2.590101 60.721273 4.742320 -3.325363 12.286309 20.565006 2.852408 0.000000 0.000000 0.000000 
0.000335 0.941001 -0.000659 0.080858 -2.701106 7.346739 6.764730 -0.311126 -4.518644 0.008386 0.124348 -3.677521 1.805088 6.508530 9.086117 0.000000 0.000000 0.000000 -5.433689 0.615711 -6.770483 -2.755978 0.091089 -2.815571 -0.715605 -6.890102 12.628434 0.000000 0.000000 0.000000 5.794141 0.430804 -6.561105 -2.613102 1.194392 -4.487660 -4.652038 4.601043 4.306804 8.130005 -4.328194 -10.792136 0.000000 0.000000 0.000000 -19.683758 -3.314500 -1.185102 -53.102735 -7.136986 -2.912235 -8.087114 -13.808981 1.392929 0.000000 0.000000 0.000000 16.273459 -3.629645 -2.570328 61.074545 4.713727 -3.324885 12.427023 20.583620 2.879141 0.000000 0.000000 0.000000 
0.000312 0.941271 -0.000886 0.163760 -2.511749 7.393497 6.604644 -0.325333 -4.760828 0.125652 0.112466 -3.604006 1.818302 6.672170 9.568959 0.000000 0.000000 0.000000 -5.364353 0.609824 -6.678249 -2.981136 0.091850 -3.074225 -0.517359 -6.568325 12.868382 0.000000 0.000000 0.000000 5.683673 0.425009 -6.561678 -2.566005 1.176324 -4.506635 -4.686466 4.318437 4.319950 8.032077 -4.182403 -11.277007 0.000000 0.000000 0.000000 -19.612780 -3.124542 -1.230946 -53.217795 -7.149870 -2.925449 -8.520698 -13.967621 1.463726 0.000000 0.000000 0.000000 16.243562 -3.519219 -2.544251 61.301131 4.568458 -3.410763 12.669949 21.049598 2.990748 0.000000 0.000000 0.000000 
0.000331 0.941525 -0.001111 0.190838 -2.276216 7.637528 6.584053 -0.345916 -5.154544 0.123217 0.105640 -3.406427 1.735659 6.527982 9.476291 0.000000 0.000000 0.000000 -5.293644 0.622018 -6.872721 -3.066343 0.088717 -3.225375 -0.533792 -6.512212 12.704616 0.000000 0.000000 0.000000 5.587262 0.428780 -6.702788 -2.444770 1.127153 -4.419420 -4.802833 4.332066 4.047781 8.293828 -4.390670 -10.991106 0.000000 0.000000 0.000000 -19.559724 -3.211178 -1.236010 -53.119419 -7.090102 -2.907269 -8.839149 -14.213419 1.522473 0.000000 0.000000 0.000000 16.152099 -3.679529 -2.590131 61.657401 4.509791 -3.413006 13.090616 21.193228 3.095005 0.000000 0.000000 0.000000 
0.000318 0.941780 -0.001317 0.223263 -2.268599 7.663756 6.619230 -0.348845 -5.249057 0.144716 0.100387 -3.308722 1.747841 6.565917 9.540320 0.000000 0.000000 0.000000 -5.308503 0.622437 -6.878072 -3.047330 0.067629 -3.526812 -0.335829 -6.159189 12.764500 0.000000 0.000000 0.000000 5.579614 0.424034 -6.662019 -2.489775 1.145126 -4.650064 -4.688343 4.378660 4.187670 8.296073 -4.381135 -11.062841 0.000000 0.000000 0.000000 -19.399373 -3.084685 -1.281632 -53.316381 -7.181195 -2.898053 -9.022735 -14.239566 1.547796 0.000000 0.000000 0.000000 16.230383 -3.673136 -2.586323 61.605416 4.700028 -3.328527 13.312765 21.292196 3.154689 0.000000 0.000000 0.000000 
0.000276 0.941980 -0.001482 0.237254 -2.384176 7.655866 6.598484 -0.349311 -5.308939 0.139614 0.096920 -3.202287 1.803171 6.617186 9.410017 0.000000 0.000000 0.000000 -5.327701 0.624621 -6.900947 -3.001411 0.048236 -3.769239 -0.116786 -5.826623 12.948368 0.000000 0.000000 0.000000 5.624635 0.425176 -6.648354 -2.517391 1.155222 -4.689114 -4.741598 4.615764 4.193019 8.590809 -4.553014 -11.134041 0.000000 0.000000 0.000000 -19.260908 -3.155424 -1.273828 -53.115530 -7.328262 -2.816832 -9.468782 -14.127155 1.584680 0.000000 0.000000 0.000000 16.334938 -3.661176 -2.551181 61.541483 4.906953 -3.220095 13.602254 21.360743 3.227517 0.000000 0.000000 0.000000 
